<?xml version="1.0" encoding="UTF-8" standalone="no"?>
<!-- Created with Inkscape (http://www.inkscape.org/) -->

<svg
   xmlns:dc="http://purl.org/dc/elements/1.1/"
   xmlns:cc="http://creativecommons.org/ns#"
   xmlns:rdf="http://www.w3.org/1999/02/22-rdf-syntax-ns#"
   xmlns:svg="http://www.w3.org/2000/svg"
   xmlns="http://www.w3.org/2000/svg"
   xmlns:sodipodi="http://sodipodi.sourceforge.net/DTD/sodipodi-0.dtd"
   xmlns:inkscape="http://www.inkscape.org/namespaces/inkscape"
   width="300mm"
   height="300mm"
   viewBox="0 0 300 300"
   version="1.1"
   id="svg8"
   inkscape:version="0.92.3 (2405546, 2018-03-11)"
   sodipodi:docname="enforcado6.svg"
   inkscape:export-filename="D:\repositorios\invocador-de-nomes-do-capeta\assets\images\forca\enforcado7.svg.png"
   inkscape:export-xdpi="96"
   inkscape:export-ydpi="96">
  <defs
     id="defs2">
    <inkscape:path-effect
       effect="spiro"
       id="path-effect3894"
       is_visible="true" />
    <inkscape:path-effect
       effect="simplify"
       id="path-effect3892"
       is_visible="true"
       steps="1"
       threshold="0.0131818"
       smooth_angles="360"
       helper_size="0"
       simplify_individual_paths="false"
       simplify_just_coalesce="false"
       simplifyindividualpaths="false"
       simplifyJustCoalesce="false" />
    <inkscape:path-effect
       effect="spiro"
       id="path-effect3888"
       is_visible="true" />
    <inkscape:path-effect
       effect="simplify"
       id="path-effect3886"
       is_visible="true"
       steps="1"
       threshold="0.0131818"
       smooth_angles="360"
       helper_size="0"
       simplify_individual_paths="false"
       simplify_just_coalesce="false"
       simplifyindividualpaths="false"
       simplifyJustCoalesce="false" />
    <inkscape:path-effect
       effect="spiro"
       id="path-effect1232"
       is_visible="true" />
    <inkscape:path-effect
       effect="simplify"
       id="path-effect1230"
       is_visible="true"
       steps="1"
       threshold="0.0131818"
       smooth_angles="360"
       helper_size="0"
       simplify_individual_paths="false"
       simplify_just_coalesce="false"
       simplifyindividualpaths="false"
       simplifyJustCoalesce="false" />
    <inkscape:path-effect
       effect="spiro"
       id="path-effect1226"
       is_visible="true" />
    <inkscape:path-effect
       effect="simplify"
       id="path-effect1224"
       is_visible="true"
       steps="1"
       threshold="0.0131818"
       smooth_angles="360"
       helper_size="0"
       simplify_individual_paths="false"
       simplify_just_coalesce="false"
       simplifyindividualpaths="false"
       simplifyJustCoalesce="false" />
    <inkscape:path-effect
       effect="spiro"
       id="path-effect1220"
       is_visible="true" />
    <inkscape:path-effect
       effect="simplify"
       id="path-effect1218"
       is_visible="true"
       steps="1"
       threshold="0.0131818"
       smooth_angles="360"
       helper_size="0"
       simplify_individual_paths="false"
       simplify_just_coalesce="false"
       simplifyindividualpaths="false"
       simplifyJustCoalesce="false" />
    <inkscape:path-effect
       effect="spiro"
       id="path-effect1214"
       is_visible="true" />
    <inkscape:path-effect
       effect="simplify"
       id="path-effect1212"
       is_visible="true"
       steps="1"
       threshold="0.0131818"
       smooth_angles="360"
       helper_size="0"
       simplify_individual_paths="false"
       simplify_just_coalesce="false"
       simplifyindividualpaths="false"
       simplifyJustCoalesce="false" />
    <inkscape:path-effect
       effect="spiro"
       id="path-effect1208"
       is_visible="true" />
    <inkscape:path-effect
       effect="simplify"
       id="path-effect1206"
       is_visible="true"
       steps="1"
       threshold="0.0131818"
       smooth_angles="360"
       helper_size="0"
       simplify_individual_paths="false"
       simplify_just_coalesce="false"
       simplifyindividualpaths="false"
       simplifyJustCoalesce="false" />
    <clipPath
       id="clipPath8359"
       clipPathUnits="userSpaceOnUse">
      <rect
         transform="matrix(1,0,0.01673406,0.99985998,0,0)"
         ry="9.8246422"
         rx="5.6843351e-014"
         y="-660.54803"
         x="311.83594"
         height="505.95416"
         width="754.78986"
         id="rect8361"
         style="opacity:1;fill:#004d40;fill-opacity:1;fill-rule:nonzero;stroke:none;stroke-width:73.16555786;stroke-linecap:round;stroke-linejoin:miter;stroke-miterlimit:4;stroke-dasharray:none;stroke-dashoffset:0;stroke-opacity:1;paint-order:fill markers stroke" />
    </clipPath>
    <linearGradient
       id="a">
      <stop
         id="stop1172"
         offset="0" />
      <stop
         id="stop1174"
         offset="1"
         stop-opacity="0" />
    </linearGradient>
    <linearGradient
       id="c">
      <stop
         id="stop1177"
         offset="0"
         stop-color="#c8c8c8" />
      <stop
         id="stop1179"
         offset="1"
         stop-color="#fff" />
    </linearGradient>
    <clipPath
       id="clipPath12526"
       clipPathUnits="userSpaceOnUse">
      <rect
         ry="5.6843344e-014"
         rx="5.6843344e-014"
         y="-144.22778"
         x="-302.71472"
         height="633.26599"
         width="612.32147"
         id="rect12528"
         style="opacity:1;fill:#004d40;fill-opacity:1;fill-rule:nonzero;stroke:none;stroke-width:16.29778671;stroke-linecap:round;stroke-linejoin:miter;stroke-miterlimit:4;stroke-dasharray:none;stroke-dashoffset:0;stroke-opacity:1;paint-order:fill markers stroke" />
    </clipPath>
    <clipPath
       id="clipPath8359-6"
       clipPathUnits="userSpaceOnUse">
      <rect
         transform="matrix(1,0,0.01673406,0.99985998,0,0)"
         ry="9.8246422"
         rx="5.6843351e-014"
         y="-660.54803"
         x="311.83594"
         height="505.95416"
         width="754.78986"
         id="rect8361-0"
         style="opacity:1;fill:#004d40;fill-opacity:1;fill-rule:nonzero;stroke:none;stroke-width:73.16555786;stroke-linecap:round;stroke-linejoin:miter;stroke-miterlimit:4;stroke-dasharray:none;stroke-dashoffset:0;stroke-opacity:1;paint-order:fill markers stroke" />
    </clipPath>
    <clipPath
       id="clipPath12526-8"
       clipPathUnits="userSpaceOnUse">
      <rect
         ry="5.6843344e-014"
         rx="5.6843344e-014"
         y="-144.22778"
         x="-302.71472"
         height="633.26599"
         width="612.32147"
         id="rect12528-6"
         style="opacity:1;fill:#004d40;fill-opacity:1;fill-rule:nonzero;stroke:none;stroke-width:16.29778671;stroke-linecap:round;stroke-linejoin:miter;stroke-miterlimit:4;stroke-dasharray:none;stroke-dashoffset:0;stroke-opacity:1;paint-order:fill markers stroke" />
    </clipPath>
  </defs>
  <sodipodi:namedview
     id="base"
     pagecolor="#ffffff"
     bordercolor="#666666"
     borderopacity="1.0"
     inkscape:pageopacity="0.0"
     inkscape:pageshadow="2"
     inkscape:zoom="0.7"
     inkscape:cx="215.70972"
     inkscape:cy="686.88459"
     inkscape:document-units="mm"
     inkscape:current-layer="layer1"
     showgrid="false"
     inkscape:window-width="1920"
     inkscape:window-height="1017"
     inkscape:window-x="-8"
     inkscape:window-y="-8"
     inkscape:window-maximized="1"
     inkscape:snap-global="false" />
  <metadata
     id="metadata5">
    <rdf:RDF>
      <cc:Work
         rdf:about="">
        <dc:format>image/svg+xml</dc:format>
        <dc:type
           rdf:resource="http://purl.org/dc/dcmitype/StillImage" />
        <dc:title></dc:title>
      </cc:Work>
    </rdf:RDF>
  </metadata>
  <g
     inkscape:label="Camada 1"
     inkscape:groupmode="layer"
     id="layer1"
     transform="translate(41.898815,29.136909)">
    <rect
       style="opacity:1;vector-effect:none;fill:#ffffff;fill-opacity:1;fill-rule:nonzero;stroke:none;stroke-width:4.88732004;stroke-linecap:butt;stroke-linejoin:miter;stroke-miterlimit:4;stroke-dasharray:none;stroke-dashoffset:0;stroke-opacity:1;paint-order:fill markers stroke"
       id="rect3982"
       width="300"
       height="300"
       x="-41.898815"
       y="-29.136909" />
    <rect
       style="opacity:1;vector-effect:none;fill:#4d1854;fill-opacity:1;fill-rule:nonzero;stroke:#43154a;stroke-width:5.21442556;stroke-linecap:butt;stroke-linejoin:miter;stroke-miterlimit:4;stroke-dasharray:none;stroke-dashoffset:0;stroke-opacity:1;paint-order:fill markers stroke"
       id="rect3907"
       width="0.19855148"
       height="68.110008"
       x="118.58768"
       y="7.0238695" />
    <path
       inkscape:connector-curvature="0"
       style="opacity:1;vector-effect:none;fill:#300f35;fill-opacity:1;fill-rule:nonzero;stroke:none;stroke-width:0.04814366;stroke-linecap:butt;stroke-linejoin:miter;stroke-miterlimit:4;stroke-dasharray:none;stroke-dashoffset:0;stroke-opacity:1;paint-order:fill markers stroke"
       d="m 16.104652,-19.263199 v 10.2244475 0.5728734 258.6775181 0.57287 10.20487 H 200.09772 V 250.21164 H 26.930505 V 36.344122 L 74.559559,-8.4658781 h 38.950351 v 16.010245 h 10.82586 v -16.010245 -5.6414599 -5.155861 z M 26.930505,-8.4658781 H 58.760223 L 26.930505,21.480183 Z"
       id="rect815" />
    <g
       id="g3943"
       transform="matrix(1.0825954,0,0,1.0825954,1.3794561,-19.069071)">
      <circle
         r="18.307962"
         cy="96.815117"
         cx="109.71414"
         id="path3917"
         style="opacity:1;vector-effect:none;fill:#300f35;fill-opacity:1;fill-rule:nonzero;stroke:none;stroke-width:9.83370113;stroke-linecap:butt;stroke-linejoin:miter;stroke-miterlimit:4;stroke-dasharray:none;stroke-dashoffset:0;stroke-opacity:1;paint-order:fill markers stroke" />
      <path
         inkscape:connector-curvature="0"
         id="rect4575"
         d="m 93.386833,68.519458 c -0.0144,0.0034 -0.0285,0.01352 -0.043,0.02933 -0.18719,0.203734 -1.24635,3.329388 -1.62344,4.791353 -0.82894,3.213801 -0.72868,6.774484 0.26521,9.419389 0.20148,0.536192 0.36649,1.066066 0.36649,1.177535 0,0.111469 -0.34047,0.725373 -0.75669,1.364016 -1.47729,2.266755 -2.56817,5.053652 -3.07856,7.865373 -0.3491,1.923109 -0.35292,5.445803 -0.008,7.346106 1.61389,8.88895 8.67854,15.79192 17.581797,17.1792 1.78827,0.27865 4.45005,0.28186 6.26952,0.008 8.87923,-1.33826 15.82181,-7.94604 17.61633,-16.76666 0.1693,-0.83212 0.30675,-1.891823 0.3056,-2.355063 -0.001,-0.46325 0.0365,-1.16476 0.0834,-1.559005 0.11695,-0.982619 -0.17931,-3.472003 -0.63404,-5.327929 -0.61103,-2.493914 -1.52438,-4.565904 -2.94976,-6.691945 -0.64046,-0.955289 -0.6414,-0.976534 -0.10714,-2.426025 0.71088,-1.928675 0.98825,-4.877774 0.48563,-5.163145 -0.24663,-0.140026 -0.24513,-0.161524 0.0275,-0.363288 0.28432,-0.210403 0.28497,-0.246358 0.0249,-1.847811 -0.2563,-1.578163 -1.56488,-5.916927 -1.93929,-6.429815 -0.15531,-0.212771 -0.24617,-0.0258 -0.59247,1.221808 -0.4563,1.643945 -1.57477,4.080809 -2.49839,5.443161 -0.77756,1.146927 -2.07286,2.70802 -2.3286,2.806318 -0.10855,0.04172 -0.75994,-0.191843 -1.44752,-0.518981 -2.90789,-1.383546 -5.80502,-2.027552 -9.11859,-2.027552 -3.30569,0 -6.19449,0.641559 -9.08903,2.019047 -0.672312,0.319944 -1.281562,0.58173 -1.354132,0.58173 -0.23035,0 -1.968215,-2.174055 -2.805745,-3.510316 -0.9298,-1.483461 -1.77007,-3.409149 -2.19191,-5.022405 -0.25133,-0.961143 -0.35931,-1.26563 -0.46016,-1.242042 z m 24.409837,16.530628 c 0.22384,-0.02398 0.38001,0.360721 0.65307,1.174601 0.42811,1.276082 0.466,3.203626 0.0849,4.316059 -0.25509,0.744599 -0.90005,1.510417 -1.55581,1.847226 -0.42888,0.220278 -1.7641,0.197683 -2.52035,-0.04251 -0.7782,-0.247173 -1.87342,-0.812633 -1.87342,-0.967302 0,-0.0665 0.17538,-0.284506 0.38991,-0.484679 0.72552,-0.676983 3.15639,-3.659625 3.94443,-4.839734 0.42956,-0.643281 0.67979,-0.982503 0.87729,-1.003657 z m -17.67224,0.14983 c 0.0799,0 0.36277,0.354526 0.62878,0.787566 0.70614,1.149535 2.12945,2.986729 3.38738,4.372356 0.60527,0.666705 1.10063,1.297136 1.10063,1.40096 0,0.251927 -0.98826,0.744183 -2.05023,1.021251 -0.93448,0.243812 -1.21473,0.254592 -1.96504,0.07653 -0.84502,-0.200541 -1.556732,-0.944848 -1.915862,-2.003803 -0.39213,-1.156225 -0.25081,-3.665254 0.26988,-4.791647 0.21947,-0.474766 0.464542,-0.863212 0.544462,-0.863213 z m -4.186227,10.542678 c 0.10078,0.01973 0.36158,0.376686 0.6033,0.830962 1.906875,3.583614 6.152027,6.211544 10.995837,6.806884 4.355,0.53526 9.2124,-0.98303 12.18779,-3.809683 0.9829,-0.93377 2.60171,-3.037136 2.60171,-3.380428 0,-0.07961 0.0941,-0.22289 0.20901,-0.318425 0.62534,-0.519852 1.0837,3.529193 0.63052,5.569536 -1.00595,4.52905 -5.14857,8.17074 -10.54884,9.27308 -1.74805,0.35682 -4.70073,0.39413 -6.4071,0.0809 -3.33449,-0.61204 -6.415232,-2.33807 -8.589657,-4.81246 -1.84733,-2.10219 -2.81294,-5.23282 -2.42813,-7.872413 0.18478,-1.267495 0.49935,-2.290944 0.72742,-2.36709 0.005,-0.0018 0.0114,-0.0023 0.0181,-7.81e-4 z m 23.020577,5.154646 c -0.1809,-0.0147 -0.48726,0.15322 -0.94813,0.46239 -0.47002,0.31532 -0.88435,0.5933 -0.9209,0.6178 -0.0365,0.0245 0.15197,0.2443 0.41888,0.48849 0.2669,0.24418 0.58805,0.69048 0.71366,0.99164 0.2949,0.70697 0.45351,0.53834 0.73181,-0.7776 0.25953,-1.22718 0.30618,-1.7583 0.005,-1.78272 z m -19.456382,0.0592 c -0.0182,7.8e-4 -0.0307,0.006 -0.0366,0.0152 -0.18232,0.29548 0.28145,2.84356 0.51753,2.84356 0.0692,0 0.210092,-0.20393 0.313222,-0.45331 0.10312,-0.24937 0.38104,-0.61658 0.61764,-0.816 0.2366,-0.19942 0.4303,-0.42442 0.4303,-0.49993 0,-0.19305 -1.568622,-1.1021 -1.842112,-1.08957 z"
         style="opacity:1;fill:#611f6a;fill-opacity:1;fill-rule:nonzero;stroke:none;stroke-width:4.66975832;stroke-linecap:round;stroke-linejoin:miter;stroke-miterlimit:4;stroke-dasharray:none;stroke-dashoffset:0;stroke-opacity:1;paint-order:fill markers stroke" />
    </g>
    <path
       style="fill:none;stroke:#611f6a;stroke-width:5.68275928;stroke-linecap:butt;stroke-linejoin:miter;stroke-miterlimit:4;stroke-dasharray:none;stroke-opacity:1"
       d="m 118.68074,109.5012 -0.33224,64.45504"
       id="path1234"
       inkscape:connector-curvature="0" />
    <path
       style="fill:none;stroke:#611f6a;stroke-width:5.41297722;stroke-linecap:butt;stroke-linejoin:miter;stroke-miterlimit:4;stroke-dasharray:none;stroke-opacity:1"
       d="M 118.68391,172.9023 94.057899,231.41079"
       id="path1240"
       inkscape:connector-curvature="0"
       sodipodi:nodetypes="cc" />
    <g
       id="g3976"
       transform="matrix(1.0825954,0,0,1.0825954,1.3794561,-19.069071)">
      <path
         inkscape:connector-curvature="0"
         id="path1238"
         d="m 108.78836,116.22522 25.32441,37.04167"
         style="fill:none;stroke:#611f6a;stroke-width:6.46500015;stroke-linecap:butt;stroke-linejoin:miter;stroke-miterlimit:4;stroke-dasharray:none;stroke-opacity:1" />
      <circle
         r="6.4255953"
         cy="156.20387"
         cx="137.01636"
         id="path3945"
         style="opacity:1;vector-effect:none;fill:#611f6a;fill-opacity:1;fill-rule:nonzero;stroke:none;stroke-width:7.46499968;stroke-linecap:butt;stroke-linejoin:miter;stroke-miterlimit:4;stroke-dasharray:none;stroke-dashoffset:0;stroke-opacity:1;paint-order:fill markers stroke" />
    </g>
    <g
       id="g3980"
       transform="matrix(1.0825954,0,0,1.0825954,1.3794561,-19.069071)">
      <path
         inkscape:connector-curvature="0"
         id="path1236"
         d="M 108.21405,115.13172 86.589126,162.03847"
         style="fill:none;stroke:#611f6a;stroke-width:6.46500015;stroke-linecap:butt;stroke-linejoin:miter;stroke-miterlimit:4;stroke-dasharray:none;stroke-opacity:1" />
      <circle
         r="6.4255953"
         cy="162.0625"
         cx="85.233627"
         id="path3945-9"
         style="opacity:1;vector-effect:none;fill:#611f6a;fill-opacity:1;fill-rule:nonzero;stroke:none;stroke-width:7.46499968;stroke-linecap:butt;stroke-linejoin:miter;stroke-miterlimit:4;stroke-dasharray:none;stroke-dashoffset:0;stroke-opacity:1;paint-order:fill markers stroke" />
    </g>
    <ellipse
       style="opacity:1;vector-effect:none;fill:#611f6a;fill-opacity:1;fill-rule:nonzero;stroke:none;stroke-width:10.42965412;stroke-linecap:butt;stroke-linejoin:miter;stroke-miterlimit:4;stroke-dasharray:none;stroke-dashoffset:0;stroke-opacity:1;paint-order:fill markers stroke"
       id="path3945-3"
       cx="93.448395"
       cy="230.03421"
       rx="11.585836"
       ry="6.9563198" />
  </g>
</svg>
