<svg version="1" xmlns="http://www.w3.org/2000/svg" width="533.333" height="533.333" viewBox="0 0 400.000000 400.000000"><path d="M122 8.5c-10.1 25.7-11.5 43.7-5 66.5 1.3 4.5 1.2 4.5-3.3 12-5.1 8.4-9.5 19.1-12.3 29.5-2.9 10.9-2.7 36.1.4 47.5 5 18.1 13.6 32.7 27.7 46.5 13.5 13.3 29.1 21.8 48 26.1 12.2 2.8 32.1 2.4 44.6-.9 18.2-4.8 33.2-13.3 45.8-26 18.5-18.8 27.8-39.7 28.8-65 1-22.9-3.6-40.5-15.4-59.8l-3.4-5.6 2.5-8.7c2.2-7.3 2.6-10.7 2.5-20.8-.1-10.5-.5-13.8-3.5-24.5-1.8-6.7-4.1-13.8-5-15.5l-1.7-3.3-2.7 8c-4.8 14.1-13.6 29.4-20.7 35.8-1.9 1.7-2.3 1.6-10.3-1.8-13-5.6-22.8-7.7-37.5-8.2-15.6-.6-27.3 1.5-41.1 7.2-4.9 2-9.6 3.9-10.6 4.2-1.1.3-3.1-1.4-6.6-5.9-7.4-9.2-13.1-19.7-16.8-30.7-3.1-9.4-3.2-9.6-4.4-6.6zm118.6 79.1c2.1 5.1 2.8 15.1 1.4 20.3-.7 2.6-2.6 5.9-4.5 7.8-2.9 2.9-4 3.3-8.5 3.3-5.1 0-15-3.4-15-5.1 0-.4 2.5-3.7 5.6-7.1 3.1-3.5 8.4-10 11.7-14.6 3.4-4.5 6.5-8.2 7-8.2.4 0 1.5 1.6 2.3 3.6zm-81.4 2.7c1.9 2.9 7.2 9.7 11.7 15.1 6.1 7.5 7.9 10.2 7 11.2-1.6 1.9-9.7 4.4-14.5 4.4-8.9 0-14.1-8.5-13.1-21.3.5-6.6 3.1-14.7 4.7-14.7.4 0 2.3 2.4 4.2 5.3zM140.5 142c13.1 19.7 41.2 31.5 67 28.1 16-2.2 31.9-9.6 41.1-19.3 4.9-5.2 9.8-11.6 10.7-14.1.4-.9 1.1-1.7 1.6-1.7 2 0 3.3 8.6 2.9 18.6-.3 9.3-.6 10.7-4.2 18-7.1 14.5-21.1 25.7-39.1 31.4-10 3.2-28.5 3.9-39.1 1.5-34.9-7.7-55.8-36.2-48.3-65.8.5-2 1.4-3.7 1.9-3.7.4 0 3 3.2 5.5 7z"/><path d="M152.3 164.5c.3 3 .9 5.9 1.2 6.6.8 1.2 6.4-4.8 6.5-6.9 0-1.2-5.6-5.2-7.4-5.2-.5 0-.6 2.5-.3 5.5zM238.3 161.3c-1.8 1.2-3.3 2.4-3.2 2.7 0 .3 1.5 2.2 3.4 4.4 3.4 3.9 3.4 3.9 4.3 1.5.5-1.3 1.2-4.3 1.6-6.7.5-3.6.4-4.2-1.1-4.1-1 0-3.3 1-5 2.2zM258.5 229.6c-2.8 2-8.6 5.4-13 7.6-36.2 18.4-79 15.8-113.1-6.9-6.2-4.1-7.7-4-23.4.9-39.2 12.4-70.2 43.2-83.5 83.1-8 24-8.6 51.6-1.5 66.3 7 14.5 18.8 16.4 54.5 8.8 50.6-10.6 51.1-10.7 130-10.2 70.3.5 65.7.1 105.8 8.7 23.6 5.1 33.4 6.5 41.2 5.8 11.9-.9 18.5-6 22.8-17.5 1.8-4.9 2.1-8 2.2-22.2 0-12.1-.5-18.7-1.8-24.7-8.6-39.8-33.2-72.4-68.2-90-10.8-5.5-23-9.8-33.8-11.8-11.2-2.1-12.6-2-18.2 2.1z"/></svg>