<?xml version="1.0" encoding="UTF-8" standalone="no"?>
<!-- Created with Inkscape (http://www.inkscape.org/) -->

<svg
   xmlns:dc="http://purl.org/dc/elements/1.1/"
   xmlns:cc="http://creativecommons.org/ns#"
   xmlns:rdf="http://www.w3.org/1999/02/22-rdf-syntax-ns#"
   xmlns:svg="http://www.w3.org/2000/svg"
   xmlns="http://www.w3.org/2000/svg"
   xmlns:sodipodi="http://sodipodi.sourceforge.net/DTD/sodipodi-0.dtd"
   xmlns:inkscape="http://www.inkscape.org/namespaces/inkscape"
   width="317.5mm"
   height="166.6875mm"
   viewBox="0 0 317.5 166.6875"
   version="1.1"
   id="svg20017"
   inkscape:version="0.92.3 (2405546, 2018-03-11)"
   sodipodi:docname="og-image.svg"
   inkscape:export-filename="D:\repositorios\invocador-de-nomes-do-capeta\assets\images\og-image.png"
   inkscape:export-xdpi="96"
   inkscape:export-ydpi="96">
  <defs
     id="defs20011" />
  <sodipodi:namedview
     id="base"
     pagecolor="#ffffff"
     bordercolor="#666666"
     borderopacity="1.0"
     inkscape:pageopacity="0.0"
     inkscape:pageshadow="2"
     inkscape:zoom="0.49497475"
     inkscape:cx="277.75527"
     inkscape:cy="54.69625"
     inkscape:document-units="mm"
     inkscape:current-layer="layer1"
     showgrid="false"
     inkscape:window-width="1920"
     inkscape:window-height="1017"
     inkscape:window-x="-8"
     inkscape:window-y="-8"
     inkscape:window-maximized="1" />
  <metadata
     id="metadata20014">
    <rdf:RDF>
      <cc:Work
         rdf:about="">
        <dc:format>image/svg+xml</dc:format>
        <dc:type
           rdf:resource="http://purl.org/dc/dcmitype/StillImage" />
        <dc:title />
      </cc:Work>
    </rdf:RDF>
  </metadata>
  <g
     inkscape:label="Camada 1"
     inkscape:groupmode="layer"
     id="layer1"
     transform="translate(198.9666,-61.137012)">
    <rect
       style="opacity:1;fill:#efe8f0;fill-opacity:1;fill-rule:nonzero;stroke:none;stroke-width:0.86500001;stroke-linecap:round;stroke-linejoin:miter;stroke-miterlimit:4;stroke-dasharray:none;stroke-dashoffset:0;stroke-opacity:1;paint-order:fill markers stroke"
       id="rect24265"
       width="317.5"
       height="166.6875"
       x="-198.9666"
       y="61.137012" />
    <rect
       style="opacity:1;fill:#dfd2e1;fill-opacity:1;fill-rule:nonzero;stroke:none;stroke-width:0.98746163;stroke-linecap:round;stroke-linejoin:miter;stroke-miterlimit:4;stroke-dasharray:none;stroke-dashoffset:0;stroke-opacity:1;paint-order:fill markers stroke"
       id="rect24306-9"
       width="317.5"
       height="79.375"
       x="-198.9666"
       y="128.19597" />
    <g
       style="fill:#611f6a;fill-opacity:1"
       transform="matrix(0.22621452,0,0,0.22621452,-91.467998,66.0423)"
       id="g4599">
      <path
         inkscape:connector-curvature="0"
         style="fill:#611f6a;fill-opacity:1;stroke-width:5.0346899"
         d="m 306.63276,274.23524 c -23.83422,18.75422 -53.84601,29.98158 -86.4557,29.98158 -31.7991,0 -61.15134,-10.66851 -84.68852,-28.59704 C 58.67428,288.03533 0,354.63421 0,434.95765 c 0,89.16939 72.27801,31.19997 161.43734,31.19997 H 291.6747 c 89.16435,0 161.4474,57.96942 161.4474,-31.19997 0,-84.10953 -64.34334,-153.17541 -146.48934,-160.72241 z"
         id="path2-3" />
      <path
         style="opacity:1;fill:#611f6a;fill-opacity:1;fill-rule:nonzero;stroke:none;stroke-width:27.50247192;stroke-linecap:round;stroke-linejoin:miter;stroke-miterlimit:4;stroke-dasharray:none;stroke-dashoffset:0;stroke-opacity:1;paint-order:fill markers stroke"
         d="m 130.39173,0.00735381 c -0.0849,0.01978 -0.16804,0.07964 -0.25362,0.172549 -1.10339,1.19889099 -7.34651,19.59205219 -9.56919,28.19510919 -4.8861,18.911879 -4.2951,39.865004 1.56324,55.429155 1.18763,3.155269 2.16023,6.273346 2.16023,6.929292 0,0.655944 -2.00688,4.268514 -4.46022,8.026662 -8.70775,13.338919 -15.13779,29.738629 -18.14626,46.284429 -2.05768,11.31669 -2.08026,32.04624 -0.0466,43.2287 9.51293,52.30775 51.15475,92.92887 103.63398,101.09243 10.54077,1.63971 26.23041,1.6586 36.95508,0.0449 52.33771,-7.87511 93.25994,-46.75916 103.83761,-98.66476 0.9979,-4.89669 1.80809,-11.1326 1.80129,-13.85858 -0.008,-2.72598 0.21529,-6.85411 0.49179,-9.17407 0.68933,-5.78231 -1.05692,-20.43128 -3.73728,-31.35263 -3.6017,-14.67563 -8.98532,-26.86843 -17.38704,-39.379287 -3.7752,-5.621475 -3.78068,-5.746496 -0.63156,-14.27614 4.19023,-11.349444 5.82516,-28.703658 2.86254,-30.382943 -1.45375,-0.823997 -1.44491,-0.950511 0.1621,-2.137796 1.67584,-1.238142 1.67973,-1.449711 0.14674,-10.873601 -1.51073,-9.286819 -9.22402,-34.8186322 -11.43097,-37.8367662 -0.91548,-1.25206299 -1.45103,-0.151781 -3.49224,7.189831 -2.68965,9.6739332 -9.28234,24.0138522 -14.72648,32.0307172 -4.58325,6.749182 -12.21827,15.935565 -13.72572,16.514009 -0.63986,0.245527 -4.47937,-1.128918 -8.53222,-3.053996 -17.14021,-8.141576 -34.21707,-11.931288 -53.74859,-11.931288 -19.48502,0 -36.51276,3.775312 -53.57433,11.881252 -3.96282,1.882735 -7.554,3.423236 -7.9818,3.423236 -1.35778,0 -11.6014,-12.793396 -16.53815,-20.656742 -5.48057,-8.729532 -10.43342,-20.061397 -12.91995,-29.5547412 -1.48144,-5.655925 -2.11789,-7.44768699 -2.71238,-7.30888799 z M 274.2729,97.283165 c 1.31936,-0.141082 2.23994,2.122679 3.84941,6.912025 2.52348,7.50921 2.7468,18.85199 0.50037,25.39821 -1.50367,4.38165 -5.30532,8.88817 -9.17062,10.87015 -2.52798,1.29624 -10.39824,1.16328 -14.85588,-0.25018 -4.58704,-1.4545 -11.04268,-4.782 -11.04268,-5.69217 0,-0.39131 1.03373,-1.67419 2.29825,-2.85212 4.27652,-3.98377 18.60505,-21.53536 23.25005,-28.47981 2.53198,-3.785439 4.00694,-5.781623 5.1711,-5.906105 z m -104.16715,0.881684 c 0.47108,0 2.13826,2.086241 3.70622,4.634491 4.16226,6.76454 12.55185,17.57565 19.96657,25.72948 3.56768,3.92329 6.48758,7.6331 6.48758,8.24406 0,1.48249 -5.8252,4.37922 -12.08485,6.00964 -5.50827,1.43473 -7.16015,1.49817 -11.58275,0.45034 -4.9809,-1.18011 -9.176,-5.56004 -11.29288,-11.79154 -2.31135,-6.8039 -1.47836,-21.56848 1.59083,-28.19683 1.29365,-2.7938 2.7382,-5.079641 3.20928,-5.079641 z m -24.67524,62.039241 c 0.59399,0.11616 2.1313,2.21664 3.55609,4.88985 11.23983,21.08808 36.26237,36.55234 64.81373,40.05565 25.6701,3.14978 54.30152,-5.7847 71.83963,-22.41839 5.79362,-5.49479 15.33555,-17.87225 15.33555,-19.89238 0,-0.46845 0.55455,-1.31162 1.23196,-1.87381 3.68604,-3.05911 6.38774,20.76781 3.71655,32.77437 -5.92949,26.65157 -30.34775,48.08138 -62.17902,54.56818 -10.3037,2.09977 -27.70797,2.31931 -37.76601,0.47621 -19.65477,-3.60165 -37.81386,-13.75857 -50.63077,-28.31933 -10.88891,-12.37048 -16.58056,-30.79293 -14.31235,-46.32584 1.08916,-7.45867 2.94337,-13.48123 4.28767,-13.92933 0.0309,-0.0103 0.0674,-0.0129 0.10697,-0.005 z m 135.6923,30.33291 c -1.0663,-0.0863 -2.87213,0.90164 -5.58863,2.72099 -2.7705,1.85551 -5.21271,3.49132 -5.42818,3.63546 -0.21547,0.14414 0.8958,1.43763 2.46908,2.87456 1.57318,1.43693 3.46618,4.06319 4.20658,5.83537 1.73829,4.16026 2.67314,3.16795 4.31355,-4.57582 1.5298,-7.22145 1.80477,-10.34683 0.0276,-10.49056 z m -114.68358,0.34853 c -0.10746,0.005 -0.18107,0.0338 -0.21567,0.0897 -1.07463,1.73877 1.65897,16.73313 3.05054,16.73313 0.40822,0 1.23835,-1.20002 1.8462,-2.6675 0.60785,-1.46747 2.24602,-3.62836 3.64064,-4.80185 1.39461,-1.17349 2.53637,-2.49754 2.53637,-2.94184 0,-1.13605 -9.24609,-6.48541 -10.85808,-6.41167 z"
         id="rect4575"
         inkscape:connector-curvature="0" />
    </g>
    <rect
       style="opacity:1;fill:#611f6a;fill-opacity:1;fill-rule:nonzero;stroke:none;stroke-width:0.40818164;stroke-linecap:round;stroke-linejoin:miter;stroke-miterlimit:4;stroke-dasharray:none;stroke-dashoffset:0;stroke-opacity:1;paint-order:fill markers stroke"
       id="rect24323"
       width="317.5"
       height="5.2916665"
       x="-198.9666"
       y="180.20537" />
    <text
       xml:space="preserve"
       style="font-style:normal;font-variant:normal;font-weight:bold;font-stretch:normal;font-size:17.55906868px;line-height:1.25;font-family:Montserrat;-inkscape-font-specification:'Montserrat, Bold';font-variant-ligatures:normal;font-variant-caps:normal;font-variant-numeric:normal;font-feature-settings:normal;text-align:center;letter-spacing:0px;word-spacing:0px;writing-mode:lr-tb;text-anchor:middle;fill:#611f6a;fill-opacity:1;stroke:none;stroke-width:0.2073579"
       x="-40.394379"
       y="201.93417"
       id="text24327"><tspan
         sodipodi:role="line"
         id="tspan24325"
         x="-40.394379"
         y="201.93417"
         style="font-style:normal;font-variant:normal;font-weight:bold;font-stretch:normal;font-size:17.55906868px;font-family:Montserrat;-inkscape-font-specification:'Montserrat, Bold';font-variant-ligatures:normal;font-variant-caps:normal;font-variant-numeric:normal;font-feature-settings:normal;text-align:center;writing-mode:lr-tb;text-anchor:middle;fill:#611f6a;fill-opacity:1;stroke-width:0.2073579">InvocaDemo</tspan></text>
  </g>
</svg>
