<?xml version="1.0" encoding="UTF-8" standalone="no"?>
<!-- Created with Inkscape (http://www.inkscape.org/) -->

<svg
   xmlns:dc="http://purl.org/dc/elements/1.1/"
   xmlns:cc="http://creativecommons.org/ns#"
   xmlns:rdf="http://www.w3.org/1999/02/22-rdf-syntax-ns#"
   xmlns:svg="http://www.w3.org/2000/svg"
   xmlns="http://www.w3.org/2000/svg"
   xmlns:sodipodi="http://sodipodi.sourceforge.net/DTD/sodipodi-0.dtd"
   xmlns:inkscape="http://www.inkscape.org/namespaces/inkscape"
   width="52.916664mm"
   height="52.916664mm"
   viewBox="0 0 52.916664 52.916664"
   version="1.1"
   id="svg8"
   inkscape:version="0.92.3 (2405546, 2018-03-11)"
   sodipodi:docname="qrcode-200.svg"
   inkscape:export-filename="D:\repositorios\invocador-de-nomes-do-capeta\assets\images\qrcode-200.png"
   inkscape:export-xdpi="96"
   inkscape:export-ydpi="96">
  <defs
     id="defs2" />
  <sodipodi:namedview
     id="base"
     pagecolor="#ffffff"
     bordercolor="#666666"
     borderopacity="1.0"
     inkscape:pageopacity="0.0"
     inkscape:pageshadow="2"
     inkscape:zoom="0.9899495"
     inkscape:cx="-168.97216"
     inkscape:cy="127.97396"
     inkscape:document-units="mm"
     inkscape:current-layer="layer1"
     showgrid="false"
     inkscape:window-width="1920"
     inkscape:window-height="1017"
     inkscape:window-x="-8"
     inkscape:window-y="-8"
     inkscape:window-maximized="1" />
  <metadata
     id="metadata5">
    <rdf:RDF>
      <cc:Work
         rdf:about="">
        <dc:format>image/svg+xml</dc:format>
        <dc:type
           rdf:resource="http://purl.org/dc/dcmitype/StillImage" />
        <dc:title />
      </cc:Work>
    </rdf:RDF>
  </metadata>
  <g
     inkscape:label="Camada 1"
     inkscape:groupmode="layer"
     id="layer1"
     transform="translate(34.244751,-194.70086)">
    <g
       id="g819">
      <rect
         y="194.70087"
         x="-34.244751"
         height="52.916664"
         width="52.916664"
         id="rect846"
         style="opacity:1;vector-effect:none;fill:#ffffff;fill-opacity:1;fill-rule:nonzero;stroke:none;stroke-width:6.26770067;stroke-linecap:butt;stroke-linejoin:miter;stroke-miterlimit:4;stroke-dasharray:none;stroke-dashoffset:0;stroke-opacity:0;paint-order:fill markers stroke" />
      <path
         inkscape:connector-curvature="0"
         id="path844"
         d="m -26.015584,244.20086 h -4.812499 v -4.95832 -4.95834 h 4.812499 4.8125 v 4.95834 4.95832 z m -0.145833,-1.45833 h 3.5 v -3.49999 -3.50001 h -3.5 -3.5 v 3.50001 3.49999 z m 0,-1.45833 h -2.041666 v -2.04166 -2.04167 h 2.041666 2.041666 v 2.04167 2.04166 z m 10.5,2.91666 h -1.458333 v -0.72916 -0.72917 h -0.583332 -0.583334 v -0.72916 -0.72917 h -0.729168 -0.729167 v -1.45833 -1.45834 h 1.312501 1.3125 v -1.3125 -1.3125 h -1.3125 -1.312501 v -1.45833 -1.45833 h -1.458333 -1.458333 v -0.72917 -0.72917 h -0.729167 -0.729167 v 0.72917 0.72917 h -0.583333 -0.583333 v -0.72917 -0.72917 h -0.729167 -0.729166 v 0.72917 0.72917 h -0.729167 -0.729166 v -0.72917 -0.72917 h -0.729166 -0.729168 v 0.72917 0.72917 h -0.583332 -0.583334 v -0.72917 -0.72917 h 0.583334 0.583332 v -0.58333 -0.58333 h 0.729168 0.729166 v 0.58333 0.58333 h 0.729166 0.729167 v -0.58333 -0.58333 h 1.312499 1.3125 v -0.72917 -0.72916 h -1.3125 -1.312499 v -0.72917 -0.72917 h 1.312499 1.3125 v 0.72917 0.72917 h 1.458334 1.458333 v -0.72917 -0.72917 h -0.729167 -0.729166 v -0.72917 -0.72916 h 0.729166 0.729167 v -0.72917 -0.72917 h -0.729167 -0.729166 v -0.58333 -0.58333 h -0.729167 -0.729167 v 0.58333 0.58333 h -0.583333 -0.583333 v 0.72917 0.72917 h -0.729167 -0.729166 v -0.72917 -0.72917 h -0.729167 -0.729166 v -0.58333 -0.58333 h -0.729166 -0.729168 v -1.45833 -1.45834 h 0.729168 0.729166 v -0.72917 -0.72916 h -0.729166 -0.729168 v -0.58334 -0.58333 h 0.729168 0.729166 v 0.58333 0.58334 h 0.729166 0.729167 v 0.72916 0.72917 h 1.312499 1.3125 v -0.72917 -0.72916 h -0.583333 -0.583333 v -0.58334 -0.58333 h -0.729167 -0.729166 v -0.72917 -0.72916 h -0.729167 -0.729166 v -1.45833 -1.45834 h 1.458333 1.458333 v 0.72917 0.72917 h 2.041666 2.041667 v -0.72917 -0.72917 h -0.729167 -0.729166 v -0.72917 -0.72916 h -1.3125 -1.3125 v -0.58334 -0.58333 h -0.729167 -0.729166 v 0.58333 0.58334 h -1.458333 -1.458334 v 2.1875 2.1875 h -0.583332 -0.583334 v -2.77084 -2.77083 h 1.3125 1.3125 v -0.72917 -0.72916 h 1.458333 1.458333 v 0.72916 0.72917 h 1.3125 1.3125 v -0.72917 -0.72916 h 1.458333 1.458333 v -1.45833 -1.45834 h 0.729167 0.729168 v -0.72917 -0.72916 h -0.729168 -0.729167 v -0.58334 -0.58333 h 0.729167 0.729168 v -1.45833 -1.45833 h 0.583334 0.583332 v 0.72916 0.72917 h 0.729165 0.729168 v -0.72917 -0.72916 h 0.729166 0.729166 v -0.72917 -0.72917 h 1.458334 1.458335 v -0.58333 -0.58334 h 0.583332 0.583334 v 0.58334 0.58333 h 1.4583336 1.4583326 v -0.58333 -0.58334 h 0.7291664 0.7291672 v 2.04167 2.04167 h -0.7291672 -0.7291664 v -0.72917 -0.72916 H -8.6614164 -10.11975 v 0.72916 0.72917 h -0.583334 -0.583332 v 0.72916 0.72917 h 2.0416661 2.0416661 v 0.58333 0.58334 H -8.6614164 -10.11975 v 1.45833 1.45834 h 0.7291664 0.7291672 v -0.72917 -0.72917 h 0.7291665 0.7291661 v 0.72917 0.72917 h 0.7291664 0.7291672 v -0.72917 -0.72917 h 0.5833328 0.5833336 v -0.72917 -0.72916 h -0.5833336 -0.5833328 v -0.58334 -0.58333 h 2.0416665 2.0416661 v 2.04167 2.04167 h -0.7291661 -0.7291665 v -0.72917 -0.72917 h -0.7291672 -0.7291664 v 2.1875 2.1875 h -0.5833336 -0.5833328 v 0.58333 0.58334 H -7.9322499 -10.11975 v -0.58334 -0.58333 h 2.1875001 2.1874997 v -0.72917 -0.72916 h -0.7291672 -0.7291664 v -0.72917 -0.72916 h -0.7291661 -0.7291665 v 0.72916 0.72917 h -2.7708336 -2.770835 v -2.1875 -2.1875 h 0.729168 0.729166 v 1.45833 1.45834 h 0.729166 0.729169 v -2.04167 -2.04167 h -0.729169 -0.729166 v -1.45833 -1.45833 h -0.729166 -0.729168 v 0.72916 0.72917 h -0.729166 -0.729166 v 0.72916 0.72917 h -1.312499 -1.3125 v 0.58333 0.58334 h 0.583334 0.583332 v 0.72916 0.72917 h 0.729165 0.729168 v 2.1875 2.1875 h 1.458332 1.458334 v 0.58333 0.58334 h -0.729166 -0.729168 v 0.72916 0.72917 h 0.729168 0.729166 v 0.72917 0.72917 h 0.729166 0.729169 v 0.72916 0.72917 h -0.729169 -0.729166 v 0.72916 0.72917 h 1.312501 1.3125 v -0.72917 -0.72916 h 1.4583336 1.4583326 v -0.72917 -0.72916 H -8.6614164 -10.11975 v -0.72917 -0.72917 h 2.1875001 2.1874997 v 1.45834 1.45833 h 0.5833328 0.5833336 v -0.72917 -0.72916 h 2.1875001 2.18749972 v 0.72916 0.72917 H 0.52608249 1.2552497 v -3.5 -3.5 H 0.52608249 -0.20308398 v 1.3125 1.3125 H -0.93225009 -1.6614176 v -0.58334 -0.58333 h -0.7291661 -0.7291665 v -0.72917 -0.72916 h 1.4583326 1.45833362 v -2.1875 -2.1875 H 0.52608249 1.2552497 v -0.58334 -0.58333 H 0.52608249 -0.20308398 v -1.45833 -1.45833 H -1.6614176 -3.1197502 v 0.72916 0.72917 h -0.7291672 -0.7291664 v -1.45833 -1.45834 h 2.9166662 2.9166673 v -0.58333 -0.58334 h 1.3124989 1.3125 v 0.58334 0.58333 H 3.1510825 2.421916 v 1.45834 1.45833 h 0.7291665 0.7291661 v 1.3125 1.3125 H 3.1510825 2.421916 v 0.72916 0.72917 h 0.7291665 0.7291661 v 1.45834 1.45833 h 1.4583336 1.4583337 v 2.04166 2.04167 h 2.0416664 2.0416657 v -0.72917 -0.72916 H 10.151082 9.4219159 v -0.58334 -0.58333 H 8.8385823 8.2552484 v -0.72917 -0.72916 h 0.5833339 0.5833336 v 0.72916 0.72917 h 0.7291661 0.729166 v 0.58333 0.58334 h 1.458334 1.458334 v -0.58334 -0.58333 h 0.729166 0.729167 v 1.3125 1.3125 h -0.729167 -0.729166 v 0.72917 0.72917 h -0.729167 -0.729167 v -0.72917 -0.72917 h -0.729167 -0.729167 v 0.72917 0.72917 H 8.8385823 6.7969159 v -0.72917 -0.72917 H 6.0677487 5.3385822 v 1.45834 1.45833 H 3.2969161 1.2552497 v 0.72916 0.72917 H 0.52608249 -0.20308398 v 0.58333 0.58334 H 0.52608249 1.2552497 v 0.72916 0.72917 H 0.52608249 -0.20308398 v 0.72917 0.72917 h 1.31249998 1.3125 v -2.04167 -2.04167 h 1.4583326 1.4583336 v 0.58333 0.58334 h 0.7291665 0.7291672 v -0.58334 -0.58333 h 2.0416664 2.0416657 v -0.72917 -0.72916 h 0.729167 0.729167 v 1.3125 1.3125 h 1.458334 1.458333 v 0.72916 0.72917 h -2.1875 -2.187501 v 0.72917 0.72917 h 2.187501 2.1875 v 0.72916 0.72917 h -0.729167 -0.729166 v 0.58333 0.58333 h 0.729166 0.729167 v 0.72917 0.72917 h -0.729167 -0.729166 v -0.72917 -0.72917 h -1.458334 -1.458334 v -1.3125 -1.31249 H 10.151082 9.4219159 v 2.04166 2.04167 h 1.4583321 1.458334 v 0.72916 0.72917 H 10.880248 9.4219159 v -0.72917 -0.72916 H 8.8385823 8.2552484 v 0.72916 0.72917 H 6.7969159 5.3385822 v -0.72917 -0.72916 h 0.7291665 0.7291672 v -0.72917 -0.72917 H 5.3385822 3.8802486 v -1.3125 -1.31249 H 3.1510825 2.421916 v 0.72916 0.72917 H 1.8385825 1.2552497 v 1.3125 1.3125 H 0.52608249 -0.20308398 v 0.72916 0.72917 H -0.93225009 -1.6614176 v 0.72917 0.72917 h -1.4583326 -1.4583336 v -0.72917 -0.72917 h 1.4583336 1.4583326 v -0.72917 -0.72916 h -0.7291661 -0.7291665 v -0.72917 -0.72917 h -1.3125 -1.3125 v -0.58333 -0.58333 h 0.5833328 0.5833336 v -0.72917 -0.72916 h -0.5833336 -0.5833328 v -0.72917 -0.72917 h -1.4583336 -1.4583326 v 0.72917 0.72917 h 0.7291665 0.7291661 v 2.77083 2.77083 h 0.7291664 0.7291672 v 0.72917 0.72917 h -0.7291672 -0.7291664 v 0.72916 0.72917 h 0.7291664 0.7291672 v 0.58333 0.58333 h 0.5833328 0.5833336 v -0.58333 -0.58333 h 1.4583336 1.4583326 v 1.3125 1.3125 h 0.72916751 0.72916611 v -2.04167 -2.04166 h 1.31249998 1.3125 v -1.45834 -1.45833 h 0.7291665 0.7291661 v 2.1875 2.1875 h 0.7291675 0.7291661 v -0.72917 -0.72916 h 2.0416665 2.0416672 v 0.72916 0.72917 h 0.7291661 0.729166 v 0.58333 0.58333 H 10.151082 9.4219159 v 0.72917 0.72917 h 1.4583321 1.458334 v -0.72917 -0.72917 h 0.729167 0.729167 v 1.45834 1.45833 h -0.729167 -0.729167 v 0.72917 0.72916 h 1.458334 1.458333 v 0.72917 0.72917 h -0.729167 -0.729166 v 0.58333 0.58333 h -0.729167 -0.729167 v 0.72917 0.72917 H 10.880248 9.4219159 v -0.72917 -0.72917 H 8.8385823 8.2552484 v 0.72917 0.72917 H 7.5260823 6.7969159 v 1.45833 1.45833 h 1.3125 1.3125 v 0.72917 0.72916 h -1.3125 -1.3125 v -0.72916 -0.72917 H 6.0677487 5.3385822 v -0.72916 -0.72917 H 4.6094161 3.8802486 v 0.72917 0.72916 H 3.1510825 2.421916 v 0.72917 0.72916 H 1.8385825 1.2552497 v -0.72916 -0.72917 H 0.52608249 -0.20308398 v 0.72917 0.72916 H -1.6614176 -3.1197502 v -0.72916 -0.72917 h 1.4583326 1.45833362 v -1.45833 -1.45833 H -0.93225009 -1.6614176 v 0.72916 0.72917 h -0.7291661 -0.7291665 v -0.72917 -0.72916 h -0.7291672 -0.7291664 v -0.72917 -0.72917 h -1.3125 -1.3125 v 1.45834 1.45833 H -8.6614164 -10.11975 v 0.72917 0.72916 h 0.7291664 0.7291672 v 0.72917 0.72916 h -2.0416676 -2.041667 v -0.72916 -0.72917 h 0.729166 0.729169 v -0.72916 -0.72917 h -1.458335 -1.458334 v 1.45833 1.45833 z m -0.729168,-1.45833 h 0.729168 v -1.45833 -1.45833 h 0.729166 0.729166 v -0.72917 -0.72917 h -0.729166 -0.729166 v 0.72917 0.72917 h -1.312499 -1.3125 v 0.72916 0.72917 h 0.583334 0.583332 v 0.72917 0.72916 z m 18.2291675,0 H 2.421916 v -0.72916 -0.72917 H 1.8385825 1.2552497 v 0.72917 0.72916 z M -10.703084,241.2842 h 0.583334 v -1.45833 -1.45834 h 0.7291664 0.7291672 v -0.58333 -0.58333 h 1.4583326 1.4583336 v -0.72917 -0.72917 h 0.5833328 0.5833336 v 0.72917 0.72917 h 0.7291664 0.7291672 v -0.72917 -0.72917 h 0.7291665 0.7291661 v 1.3125 1.3125 h -0.7291661 -0.7291665 v 0.72917 0.72917 h 0.7291665 0.7291661 v -0.72917 -0.72917 h 0.72916751 0.72916611 v -0.58333 -0.58333 H 0.52608249 1.2552497 v -2.1875 -2.1875 H 1.8385825 2.421916 v -0.72917 -0.72917 h 0.7291665 0.7291661 v -0.58333 -0.58333 h -1.3125 -1.3124989 v 1.3125 1.3125 H 0.52608249 -0.20308398 v 1.45833 1.45833 H -0.93225009 -1.6614176 v -0.72916 -0.72917 h -0.7291661 -0.7291665 v -1.45833 -1.45834 h -0.7291672 -0.7291664 v 1.45834 1.45833 h -0.5833336 -0.5833328 v -0.72917 -0.72916 h -0.7291672 -0.7291664 v -1.3125 -1.3125 H -8.6614164 -10.11975 v 0.58333 0.58333 h 0.7291664 0.7291672 v 0.72917 0.72917 h -1.3125 -1.3124996 v -0.72917 -0.72917 h -1.458335 -1.458334 v -0.58333 -0.58333 h -0.729166 -0.729166 v 0.58333 0.58333 h 0.729166 0.729166 v 0.72917 0.72917 h -1.458332 -1.458333 v 1.45833 1.45833 h 4.229165 4.2291686 v 0.72917 0.72917 h -2.0416676 -2.041667 v 0.58333 0.58333 h 0.729166 0.729169 v 1.45834 1.45833 z m 4.2291666,-5.54167 h -0.7291664 v -0.72916 -0.72917 h -0.7291661 -0.7291665 v -0.72917 -0.72916 h 0.7291665 0.7291661 v 0.72916 0.72917 h 0.7291664 0.7291672 v 0.72917 0.72916 z m 2.625,0 h -0.7291664 v -0.72916 -0.72917 h 0.7291664 0.7291672 v 0.72917 0.72916 z m 8.4583335,4.08334 h 2.1874998 v -0.72917 -0.72917 H 4.6094161 2.421916 v 0.72917 0.72917 z m 1.4583326,-2.625 h 2.1874997 v -2.1875 -2.1875 H 6.0677487 3.8802486 v 2.1875 2.1875 z m 0,-1.45834 H 5.3385822 v -0.72916 -0.72917 h 0.7291665 0.7291672 v 0.72917 0.72916 z m 4.0833333,0 h 0.729166 v -0.72916 -0.72917 H 10.151082 9.4219159 v 0.72917 0.72916 z m -29.166666,-2.91666 h 0.729168 v -0.72917 -0.72917 h 0.583334 0.583332 v -1.3125 -1.31249 h 0.729165 0.729168 v -0.72917 -0.72917 h 0.729166 0.729166 v -0.72917 -0.72916 h 0.729168 0.729166 v 2.1875 2.1875 h 0.729166 0.729169 v -2.1875 -2.1875 h -0.729169 -0.729166 v -1.3125 -1.3125 h 0.729166 0.729169 v -0.72917 -0.72916 h 0.583332 0.583334 v 0.72916 0.72917 h 0.7291664 0.7291672 v -0.72917 -0.72916 H -9.3905836 -10.11975 v -0.72917 -0.72917 h 0.7291664 0.7291672 v -0.72917 -0.72916 h 2.0416665 2.0416661 v -0.58334 -0.58333 H -7.3489175 -10.11975 v 1.3125 1.3125 h -0.583334 -0.583332 v -0.72917 -0.72916 h -0.729169 -0.729166 v 0.72916 0.72917 h -0.729166 -0.729168 v -2.04167 -2.04166 h -0.729166 -0.729166 v -2.1875 -2.1875 h -0.729168 -0.729165 v -2.77084 -2.77083 h -0.583332 -0.583334 v 2.1875 2.1875 h -2.187501 -2.1875 v 0.58333 0.58334 h 0.729166 0.729167 v 0.72916 0.72917 h 0.729167 0.729166 v 0.72917 0.72917 h 0.729167 0.729168 v -0.72917 -0.72917 h -0.729168 -0.729167 v -0.72917 -0.72916 h 1.312501 1.3125 v 2.91667 2.91666 h 0.729165 0.729168 v 2.04167 2.04167 h 0.729166 0.729166 v 2.04166 2.04167 h -0.729166 -0.729166 v -0.72917 -0.72917 h -0.729168 -0.729165 v -0.58333 -0.58333 h -0.583332 -0.583334 v -0.72917 -0.72916 h 0.583334 0.583332 v -1.45834 -1.45833 h -0.583332 -0.583334 v -0.58334 -0.58333 h -1.458335 -1.458333 v -0.72917 -0.72916 h -0.729167 -0.729166 v 0.72916 0.72917 h 0.729166 0.729167 v 0.58333 0.58334 h -0.729167 -0.729166 v 0.72916 0.72917 h -0.729167 -0.729167 v 0.72917 0.72917 h -0.583333 -0.583333 v 0.72916 0.72917 h -0.729167 -0.729166 v -0.72917 -0.72916 h -0.729167 -0.729166 v 0.72916 0.72917 h 0.729166 0.729167 v 0.58333 0.58333 h 0.729166 0.729167 v -0.58333 -0.58333 h 0.583333 0.583333 v -0.72917 -0.72916 h 0.729167 0.729167 v 0.72916 0.72917 h 0.729166 0.729167 v 0.58333 0.58333 h 0.729167 0.729166 v 0.72917 0.72917 h -0.729166 -0.729167 v 0.72916 0.72917 h 0.729167 0.729166 v 0.72917 0.72917 h -0.729166 -0.729167 v 0.72916 0.72917 h -0.729167 -0.729166 v 0.58333 0.58333 h 1.458333 1.458333 v 0.72917 0.72917 z m 1.312502,-4.08333 h -0.583334 v -0.72917 -0.72917 h -0.729168 -0.729167 v -0.72917 -0.72916 h 2.041669 2.041665 v 0.72916 0.72917 h -0.729168 -0.729165 v 0.72917 0.72917 z m -1.312502,-4.37501 h -0.729167 v -0.58333 -0.58333 h -0.729166 -0.729167 v -0.72917 -0.72916 h -0.729167 -0.729166 v -0.72917 -0.72917 h 0.729166 0.729167 v -0.72917 -0.72916 h 0.729167 0.729166 v 0.72916 0.72917 h -0.729166 -0.729167 v 0.72917 0.72917 h 0.729167 0.729166 v 0.72916 0.72917 h 0.729167 0.729168 v 0.58333 0.58333 z m 25.8124999,7 h 1.4583325 v -0.58333 -0.58333 H 6.7969159 5.3385822 v 0.58333 0.58333 z M -9.3905836,227.2842 h 0.7291672 v -1.45833 -1.45834 H -9.3905836 -10.11975 v 1.45834 1.45833 z m 8.45833351,-1.45833 h 0.72916611 v -0.72917 -0.72917 H -0.93225009 -1.6614176 v 0.72917 0.72917 z m 8.45833239,-1.45834 h 0.7291661 v -0.58333 -0.58333 H 7.5260823 6.7969159 v 0.58333 0.58333 z m -10.6458325,-2.62499 h 1.4583326 v -0.72917 -0.72917 h -1.4583326 -1.4583336 v 0.72917 0.72917 z M 9.5677484,220.2842 h 1.3124996 v -0.72917 -0.72916 h -1.3124996 -1.3125 v 0.72916 0.72917 z m -11.9583321,-1.45833 h 0.7291661 v -1.3125 -1.3125 h -0.7291661 -0.7291665 v 1.3125 1.3125 z M -24.703084,217.6592 h 0.583333 v -0.72917 -0.72916 h -0.583333 -0.583333 v 0.72916 0.72917 z m 28.5833326,-4.375 h 1.4583336 v -0.72917 -0.72916 H 4.6094161 3.8802486 v -1.3125 -1.3125 H 3.1510825 2.421916 v -1.45833 -1.45834 H 1.8385825 1.2552497 v 1.45834 1.45833 H 1.8385825 2.421916 v 2.04166 2.04167 z m -9.041666,30.91666 h -0.5833328 v -0.72916 -0.72917 h 0.5833328 0.5833336 v 0.72917 0.72916 z m 16.7708324,-1.45833 h -0.729167 v -0.72916 -0.72917 h 0.729167 0.729167 v 0.72917 0.72916 z m 2.916667,0 h -0.729166 v -0.72916 -0.72917 h 0.729166 0.729167 v 0.72917 0.72916 z m 0,-12.54166 h -0.729166 v -1.45833 -1.45834 h 0.729166 0.729167 v 1.45834 1.45833 z m -44.770831,-1.45833 h -0.583334 v -2.18751 -2.1875 h 0.583334 0.583332 v 2.1875 2.18751 z m 4.229165,-21 h -4.812499 v -4.81251 -4.8125 h 4.812499 4.8125 v 4.8125 4.81251 z m -0.145833,-1.45834 h 3.5 v -3.5 -3.5 h -3.5 -3.5 v 3.5 3.5 z m 0,-1.45833 h -2.041666 v -2.04167 -2.04166 h 2.041666 2.041666 v 2.04166 2.04167 z m 36.458333,2.91667 H 5.3385822 v -4.81251 -4.8125 h 4.9583338 4.958333 v 4.8125 4.81251 z m 0,-1.45834 h 3.5 v -3.5 -3.5 h -3.5 -3.5000001 v 3.5 3.5 z m 0,-1.45833 H 8.2552484 v -2.04167 -2.04166 h 2.0416676 2.041666 v 2.04166 2.04167 z m -27.270832,-5.54167 h -1.3125 v -0.58333 -0.58334 h 1.3125 1.312499 v 0.58334 0.58333 z"
         style="fill:#4a154b;fill-opacity:1;stroke-width:0.29166666" />
    </g>
  </g>
</svg>
