<?xml version="1.0" encoding="UTF-8" standalone="no"?>
<svg
   xmlns:dc="http://purl.org/dc/elements/1.1/"
   xmlns:cc="http://creativecommons.org/ns#"
   xmlns:rdf="http://www.w3.org/1999/02/22-rdf-syntax-ns#"
   xmlns:svg="http://www.w3.org/2000/svg"
   xmlns="http://www.w3.org/2000/svg"
   xmlns:sodipodi="http://sodipodi.sourceforge.net/DTD/sodipodi-0.dtd"
   xmlns:inkscape="http://www.inkscape.org/namespaces/inkscape"
   enable-background="new 0 0 100 100"
   version="1.1"
   viewBox="0 0 400.10416 400.10416"
   id="svg6"
   sodipodi:docname="user-favicon.svg"
   width="400.10416"
   height="400.10416"
   inkscape:version="0.92.3 (2405546, 2018-03-11)"
   inkscape:export-filename="D:\repositorios\invoca-piroto\assets\images\user-favicon.png"
   inkscape:export-xdpi="96"
   inkscape:export-ydpi="96">
  <metadata
     id="metadata12">
    <rdf:RDF>
      <cc:Work
         rdf:about="">
        <dc:format>image/svg+xml</dc:format>
        <dc:type
           rdf:resource="http://purl.org/dc/dcmitype/StillImage" />
      </cc:Work>
    </rdf:RDF>
  </metadata>
  <defs
     id="defs10" />
  <sodipodi:namedview
     pagecolor="#ffffff"
     bordercolor="#666666"
     borderopacity="1"
     objecttolerance="10"
     gridtolerance="10"
     guidetolerance="10"
     inkscape:pageopacity="0"
     inkscape:pageshadow="2"
     inkscape:window-width="1920"
     inkscape:window-height="1017"
     id="namedview8"
     showgrid="false"
     inkscape:zoom="1"
     inkscape:cx="-51.121227"
     inkscape:cy="339.8193"
     inkscape:window-x="-8"
     inkscape:window-y="-8"
     inkscape:window-maximized="1"
     inkscape:current-layer="svg6" />
  <rect
     style="opacity:1;vector-effect:none;fill:#efe8f0;fill-opacity:1;fill-rule:nonzero;stroke:none;stroke-width:18.89763832;stroke-linecap:butt;stroke-linejoin:miter;stroke-miterlimit:4;stroke-dasharray:none;stroke-dashoffset:0;stroke-opacity:1;paint-order:fill markers stroke"
     id="rect815"
     width="400"
     height="400"
     x="0.10414872"
     y="0.10414872" />
  <rect
     style="opacity:0;vector-effect:none;fill:#3a123f;fill-opacity:1;fill-rule:nonzero;stroke:#ffffff;stroke-width:0.20829745;stroke-linecap:butt;stroke-linejoin:miter;stroke-miterlimit:4;stroke-dasharray:none;stroke-dashoffset:0;stroke-opacity:1;paint-order:fill markers stroke"
     id="rect820"
     width="149.7917"
     height="149.7917"
     x="0.10414872"
     y="0.10414872" />
  <g
     id="g818"
     transform="matrix(2.6253898,0,0,2.6297678,3.1999076,2.8715621)"
     style="fill:#611f6a;fill-opacity:1">
    <path
       id="path2-3"
       d="m 99.37466,84.709282 c -7.255384,5.708979 -16.391285,9.126704 -26.318013,9.126704 -9.679976,0 -18.615102,-3.247605 -25.780064,-8.705236 -23.383058,3.779422 -41.2441183,24.05281 -41.2441183,48.5041 0,27.14409 22.0021763,9.4976 49.1432023,9.4976 h 39.645604 c 27.142549,0 49.146269,17.64649 49.146269,-9.4976 0,-25.60381 -19.58679,-46.628183 -44.59288,-48.925568 z"
       style="fill:#611f6a;fill-opacity:1;stroke-width:1.53261185"
       inkscape:connector-curvature="0" />
    <path
       inkscape:connector-curvature="0"
       id="rect4575"
       d="m 45.725061,1.2314666 c -0.02584,0.00602 -0.05115,0.024243 -0.0772,0.052526 -0.335883,0.3649548 -2.236354,5.964024 -2.912961,8.5828839 -1.487379,5.7569715 -1.307473,12.1353205 0.475867,16.8732095 0.361527,0.960497 0.657596,1.909672 0.657596,2.109349 0,0.199676 -0.610915,1.29938 -1.357737,2.443399 -2.650729,4.060505 -4.6081,9.052747 -5.52391,14.089461 -0.626379,3.444917 -0.633253,9.755208 -0.01418,13.159265 2.895834,15.923022 15.572037,28.288512 31.547259,30.773585 3.20872,0.499144 7.984809,0.504895 11.24951,0.01367 15.932142,-2.397266 28.389295,-14.233974 31.609245,-30.034577 0.30377,-1.490604 0.5504,-3.388879 0.54833,-4.218696 -0.002,-0.829817 0.0655,-2.086462 0.14971,-2.792682 0.20984,-1.760195 -0.32174,-6.219494 -1.13767,-9.544066 -1.09639,-4.467414 -2.73522,-8.179029 -5.29279,-11.987464 -1.14921,-1.711235 -1.15088,-1.749293 -0.19226,-4.345805 1.27555,-3.454889 1.77324,-8.737692 0.87139,-9.248883 -0.44254,-0.250834 -0.43985,-0.289346 0.0493,-0.650768 0.51015,-0.376903 0.51133,-0.441307 0.0447,-3.310037 -0.45988,-2.827004 -2.80788,-10.5991524 -3.4797,-11.5179037 -0.27868,-0.381141 -0.44171,-0.046204 -1.06308,2.1886592 -0.81875,2.9448456 -2.825637,7.3100655 -4.48289,9.7504825 -1.395188,2.054521 -3.719368,4.850951 -4.178251,5.027036 -0.19478,0.07474 -1.363567,-0.343655 -2.597297,-0.929668 -5.217657,-2.478381 -10.416031,-3.632008 -16.361628,-3.632008 -5.931443,0 -11.114863,1.149244 -16.308582,3.616776 -1.206324,0.573124 -2.299516,1.042069 -2.429743,1.042069 -0.413323,0 -3.531587,-3.894443 -5.034385,-6.288127 C 48.815362,9.7957909 47.307663,6.3462536 46.550737,3.456381 46.099772,1.7346588 45.90603,1.1892278 45.725061,1.2314797 Z M 89.523982,30.843233 c 0.401627,-0.04295 0.681861,0.646166 1.171801,2.104092 0.768173,2.285882 0.836154,5.738742 0.152318,7.731479 -0.457733,1.33382 -1.614995,2.705651 -2.791632,3.308987 -0.769544,0.394589 -3.165333,0.354114 -4.522284,-0.07616 -1.396343,-0.442765 -3.361507,-1.45569 -3.361507,-1.732755 0,-0.119119 0.314678,-0.509641 0.699611,-0.868215 1.301817,-1.212701 5.663571,-6.555587 7.077557,-8.66955 0.770761,-1.152327 1.219754,-1.759986 1.574136,-1.79788 z m -31.709561,0.268394 c 0.143401,0 0.650908,0.635073 1.128212,1.410787 1.267035,2.059196 3.820913,5.35021 6.078031,7.832321 1.086039,1.19429 1.974886,2.323595 1.974886,2.509577 0,0.451286 -1.773251,1.33308 -3.678753,1.829397 -1.676775,0.436747 -2.179624,0.456059 -3.52591,0.137088 -1.516237,-0.359237 -2.793269,-1.692534 -3.43767,-3.589467 -0.703599,-2.071178 -0.450028,-6.565669 0.484266,-8.583408 0.3938,-0.850461 0.833536,-1.546295 0.976938,-1.546295 z m -7.511399,18.885389 c 0.180816,0.03536 0.648789,0.674768 1.08251,1.488521 3.421521,6.41943 11.038642,11.126912 19.729972,12.193356 7.814245,0.958825 16.529947,-1.760923 21.868729,-6.824391 1.763639,-1.672671 4.668301,-5.440498 4.668301,-6.055447 0,-0.142601 0.168811,-0.399271 0.375021,-0.570407 1.122069,-0.931225 1.944495,6.321937 1.131357,9.976858 -1.804998,8.113015 -9.23817,14.636471 -18.927939,16.611121 -3.136553,0.639191 -8.434594,0.706022 -11.496366,0.144963 -5.983116,-1.09638 -11.510931,-4.188252 -15.412532,-8.620698 -3.314697,-3.765703 -5.047294,-9.373688 -4.356828,-14.102067 0.331552,-2.270496 0.895993,-4.103826 1.305212,-4.240232 0.0094,-0.0031 0.02052,-0.0039 0.03256,-0.0015 z m 41.306144,9.233653 c -0.324593,-0.02627 -0.874306,0.274468 -1.701237,0.828297 -0.843369,0.564837 -1.586803,1.062794 -1.652394,1.106672 -0.06559,0.04388 0.272691,0.437629 0.751613,0.875046 0.478893,0.437416 1.055142,1.236877 1.280527,1.776347 0.529154,1.266426 0.813732,0.964357 1.313089,-1.392927 0.465687,-2.198284 0.549391,-3.149683 0.0084,-3.193435 z m -34.910872,0.106096 c -0.03271,0.0015 -0.05512,0.01029 -0.06565,0.0273 -0.327129,0.5293 0.505007,5.093739 0.928616,5.093739 0.124266,0 0.376966,-0.365299 0.562002,-0.812015 0.185036,-0.446713 0.683712,-1.10451 1.108249,-1.461733 0.424534,-0.357222 0.772097,-0.760277 0.772097,-0.895527 0,-0.345825 -2.814606,-1.974226 -3.305312,-1.951778 z"
       style="opacity:1;fill:#611f6a;fill-opacity:1;fill-rule:nonzero;stroke:none;stroke-width:8.37203789;stroke-linecap:round;stroke-linejoin:miter;stroke-miterlimit:4;stroke-dasharray:none;stroke-dashoffset:0;stroke-opacity:1;paint-order:fill markers stroke" />
  </g>
</svg>
