<?xml version="1.0" encoding="UTF-8" standalone="no"?>
<svg
   xmlns:dc="http://purl.org/dc/elements/1.1/"
   xmlns:cc="http://creativecommons.org/ns#"
   xmlns:rdf="http://www.w3.org/1999/02/22-rdf-syntax-ns#"
   xmlns:svg="http://www.w3.org/2000/svg"
   xmlns="http://www.w3.org/2000/svg"
   xmlns:sodipodi="http://sodipodi.sourceforge.net/DTD/sodipodi-0.dtd"
   xmlns:inkscape="http://www.inkscape.org/namespaces/inkscape"
   enable-background="new 0 0 100 100"
   version="1.1"
   viewBox="0 0 373.33334 400"
   id="svg6"
   sodipodi:docname="user-404.svg"
   width="373.33334"
   height="400"
   inkscape:version="0.92.3 (2405546, 2018-03-11)"
   inkscape:export-filename="D:\repositorios\invocador-de-nomes-do-capeta\assets\images\user-404.png"
   inkscape:export-xdpi="96"
   inkscape:export-ydpi="96">
  <metadata
     id="metadata12">
    <rdf:RDF>
      <cc:Work
         rdf:about="">
        <dc:format>image/svg+xml</dc:format>
        <dc:type
           rdf:resource="http://purl.org/dc/dcmitype/StillImage" />
      </cc:Work>
    </rdf:RDF>
  </metadata>
  <defs
     id="defs10" />
  <sodipodi:namedview
     pagecolor="#ffffff"
     bordercolor="#666666"
     borderopacity="1"
     objecttolerance="10"
     gridtolerance="10"
     guidetolerance="10"
     inkscape:pageopacity="0"
     inkscape:pageshadow="2"
     inkscape:window-width="1920"
     inkscape:window-height="1017"
     id="namedview8"
     showgrid="false"
     inkscape:zoom="1.4142136"
     inkscape:cx="88.685939"
     inkscape:cy="193.04012"
     inkscape:window-x="-8"
     inkscape:window-y="-8"
     inkscape:window-maximized="1"
     inkscape:current-layer="svg6" />
  <rect
     style="opacity:0;vector-effect:none;fill:#3a123f;fill-opacity:1;fill-rule:nonzero;stroke:#ffffff;stroke-width:0.20829745;stroke-linecap:butt;stroke-linejoin:miter;stroke-miterlimit:4;stroke-dasharray:none;stroke-dashoffset:0;stroke-opacity:1;paint-order:fill markers stroke"
     id="rect820"
     width="149.7917"
     height="149.7917"
     x="108.95807"
     y="128.11783" />
  <g
     id="g951"
     transform="translate(108.85392,128.01368)">
    <g
       style="fill:#611f6a;fill-opacity:1"
       transform="translate(543.36273,33.883046)"
       id="g942">
      <path
         inkscape:connector-curvature="0"
         style="opacity:1;fill:#611f6a;fill-opacity:1;fill-rule:nonzero;stroke:none;stroke-width:22.67853737;stroke-linecap:round;stroke-linejoin:miter;stroke-miterlimit:4;stroke-dasharray:none;stroke-dashoffset:0;stroke-opacity:1;paint-order:fill markers stroke"
         d="m -544.78516,-161.89062 c -0.0699,0.0163 -0.13847,0.0659 -0.20898,0.14257 -0.9091,0.98943 -6.05348,16.16758 -7.88477,23.26758 -4.02573,15.60773 -3.53769,32.90121 1.28907,45.746095 0.97851,2.604004 1.77929,5.177406 1.77929,5.71875 0,0.541342 -1.65444,3.521496 -3.67578,6.623047 -7.17443,11.008439 -12.47245,24.544179 -14.95117,38.199219 -1.69535,9.33952 -1.71266,26.447041 -0.0371,35.6757809 7.83783,43.1689201 42.14643,76.6923971 85.38477,83.4296871 8.68468,1.35323 21.61106,1.36883 30.44726,0.03711 43.12174,-6.49923 76.83961,-38.588752 85.55469,-81.4257815 0.82218,-4.04118 1.48803,-9.1877795 1.48242,-11.4374995 -0.005,-2.249722 0.17833,-5.657636 0.40625,-7.572266 0.56795,-4.77207 -0.87169,-16.86175 -3.08008,-25.875 -2.96747,-12.11161 -7.40193,-22.172995 -14.32422,-32.498047 -3.11043,-4.63933 -3.11607,-4.743797 -0.52148,-11.783203 3.45238,-9.366552 4.80031,-23.688332 2.35938,-25.074222 -1.19777,-0.68004 -1.19111,-0.78382 0.13281,-1.76367 1.38077,-1.02182 1.38406,-1.19719 0.12109,-8.97461 -1.24471,-7.66429 -7.59963,-28.73379 -9.41797,-31.22461 -0.75428,-1.03332 -1.19516,-0.12534 -2.87695,5.9336 -2.21602,7.98378 -7.64731,19.81738 -12.13281,26.43359 -3.7762,5.57002 -10.06854,13.15153 -11.31055,13.62891 -0.52719,0.20263 -3.6901,-0.93081 -7.0293,-2.51953 -14.12205,-6.71914 -28.19092,-9.84766 -44.2832,-9.84766 -16.05397,0 -30.08338,3.11496 -44.14062,9.80469 -3.26504,1.55379 -6.22371,2.82617 -6.57618,2.82617 -1.1187,0 -9.55949,-10.55931 -13.62695,-17.04883 -4.51551,-7.20437 -8.59584,-16.55589 -10.64453,-24.39063 -1.22057,-4.66776 -1.74457,-6.1458 -2.23438,-6.03124 z m 98.09571,80.279292 c 0.95917,0.102735 2.17362,1.750925 4.25976,4.875 3.82707,5.731167 15.63277,20.216156 19.15625,23.503906 1.04186,0.97213 1.89258,2.030576 1.89258,2.353516 0,0.75115 -5.31834,3.496885 -9.09766,4.697265 -3.67271,1.16652 -10.15739,1.276802 -12.24023,0.207032 -3.18467,-1.6357 -6.3158,-5.354584 -7.55469,-8.970703 -1.85087,-5.402511 -1.66702,-14.763681 0.41211,-20.960938 1.32606,-3.952584 2.08484,-5.82152 3.17188,-5.705078 z m -45.57032,0.728516 c 0.38813,0 1.57672,1.885721 2.64258,4.191406 2.52875,5.470294 3.21685,17.656304 1.3125,23.271484 -1.74413,5.14277 -5.20085,8.756549 -9.30469,9.730469 -3.64384,0.86477 -5.00462,0.812976 -9.54296,-0.371094 -5.15741,-1.34556 -9.95704,-3.735504 -9.95704,-4.958984 10e-6,-0.50422 2.40429,-3.566848 5.34376,-6.804688 6.10908,-6.729255 13.02183,-15.651687 16.45117,-21.234375 1.29186,-2.103039 2.66655,-3.824218 3.05468,-3.824218 z m 23.58789,51.205078 c 5.68195,-0.07177 11.33895,0.264845 15.48243,1.02539 16.19383,2.97239 31.15481,11.354285 41.71484,23.371094 8.97152,10.2092 13.66178,25.413312 11.79297,38.232422 -0.89737,6.15555 -2.42561,11.126284 -3.5332,11.496094 -0.0254,0.008 -0.0553,0.01051 -0.0879,0.0039 -0.48939,-0.0959 -1.75578,-1.828986 -2.92969,-4.035156 -9.26064,-17.40372 -29.87655,-30.167364 -53.40039,-33.0585941 -21.14994,-2.59947 -44.73958,4.7743831 -59.18946,18.5019531 -4.77345,4.53478 -12.63476,14.748826 -12.63476,16.416016 0,0.3866 -0.4575,1.082905 -1.01563,1.546875 -3.03697,2.52464 -5.26333,-17.13997 -3.0625,-27.048828 4.88538,-21.995202 25.00426,-39.679734 51.23047,-45.033204 4.24468,-0.866455 9.95088,-1.346193 15.63281,-1.417968 z"
         id="path889" />
      <path
         style="opacity:1;fill:#611f6a;fill-opacity:1;fill-rule:nonzero;stroke:none;stroke-width:22.67853737;stroke-linecap:round;stroke-linejoin:miter;stroke-miterlimit:4;stroke-dasharray:none;stroke-dashoffset:0;stroke-opacity:1;paint-order:fill markers stroke"
         d="m -419.7117,-10.542051 c -0.24055,-0.847961 -1.52472,-1.956704 -3.71415,-3.528405 -2.23294,-1.602957 -4.20141,-3.015906 -4.37494,-3.140625 -0.17355,-0.124711 -0.85341,1.106394 -1.51107,2.735517 -0.65767,1.629056 -2.14276,3.848248 -3.29961,4.9312491 -2.71571,2.5425288 -1.67911,2.9777189 4.78083,2.0088388 6.02422,-0.9034871 8.51991,-1.5933207 8.11893,-3.0066129 z"
         id="path911-9"
         inkscape:connector-curvature="0" />
      <path
         style="opacity:1;fill:#611f6a;fill-opacity:1;fill-rule:nonzero;stroke:none;stroke-width:22.67853737;stroke-linecap:round;stroke-linejoin:miter;stroke-miterlimit:4;stroke-dasharray:none;stroke-dashoffset:0;stroke-opacity:1;paint-order:fill markers stroke"
         d="m -512.91324,-14.103538 c -0.0394,0.07934 -0.0478,0.144026 -0.0213,0.191288 0.82622,1.469856 12.7424,5.4959814 13.29796,4.4930367 0.163,-0.2942006 -0.37194,-1.3724007 -1.18867,-2.3973377 -0.81672,-1.024938 -1.7227,-3.069755 -2.01308,-4.544173 -0.2904,-1.474416 -0.79044,-2.8268 -1.11119,-3.004477 -0.82014,-0.454308 -8.37337,4.070344 -8.96371,5.261628 z"
         id="rect4575-7-6-6-2"
         inkscape:connector-curvature="0" />
    </g>
    <path
       id="path2-3"
       d="M 143.7849,98.309162 C 124.14757,113.78678 99.420455,123.05258 72.552898,123.05258 46.353196,123.05258 22.169495,114.24799 2.7768986,99.451804 -60.511394,109.6982 -108.85392,164.6614 -108.85392,230.95131 c 0,73.59036 59.550819,25.74895 133.010381,25.74895 H 131.46076 c 73.46368,0 133.01867,47.84141 133.01867,-25.74895 0,-69.41451 -53.01336,-126.41371 -120.69453,-132.642148 z"
       style="fill:#611f6a;fill-opacity:1;stroke-width:4.15160513"
       inkscape:connector-curvature="0" />
  </g>
</svg>
